<?xml version="1.0" encoding="UTF-8" standalone="no"?>
<!-- Created with Inkscape (http://www.inkscape.org/) -->
<svg xmlns:inkscape="http://www.inkscape.org/namespaces/inkscape" xmlns:rdf="http://www.w3.org/1999/02/22-rdf-syntax-ns#" xmlns="http://www.w3.org/2000/svg" xmlns:sodipodi="http://sodipodi.sourceforge.net/DTD/sodipodi-0.dtd" xmlns:cc="http://creativecommons.org/ns#" xmlns:xlink="http://www.w3.org/1999/xlink" xmlns:dc="http://purl.org/dc/elements/1.1/" xmlns:svg="http://www.w3.org/2000/svg" xmlns:ns1="http://sozi.baierouge.fr" id="svg2" sodipodi:docname="lonerangermask.svg" viewBox="0 0 308.53 274.87" sodipodi:version="0.32" version="1.0" inkscape:output_extension="org.inkscape.output.svg.inkscape" inkscape:version="0.46">
  <defs id="defs5">
    <clipPath id="clipPath2426" clipPathUnits="userSpaceOnUse">
      <path id="path2428" sodipodi:nodetypes="csssssssssssssssccccccssssssssccsssssccsssccsssssssssc" style="fill:#000000" d="m231.73 200.77c-9.66-3.57-29.04-6.64-47-7.43-32.03-1.41-53.89-3.5-68.5-6.55-9.42-1.96-27.579-7.77-35.638-11.4-16.924-7.63-27.787-19.24-30.227-32.3-0.485-2.6-2.075-6.45-3.532-8.55-3.965-5.72-4.45-8.64-4.071-24.5 0.336-14.104 0.45-14.761 3.957-22.925 4.324-10.066 7.99-13.921 22.01-23.143 15.331-10.085 42.591-20.57 53.511-20.578 1.92-0.001 5.07-0.464 7-1.028 8.91-2.617 52.48-5.686 98.49-6.936 22-0.598 46.3-1.577 54-2.175 17.01-1.322 103.21-0.613 125 1.028 8.25 0.622 17.27 1.787 20.05 2.589 5.82 1.683 11.21 5.537 14.59 10.445 2.62 3.801 2.83 7.435 1.39 23.696l-0.81 9.12 4 4.38c8.12 8.894 8.3 12.048 1.14 19.617l-5.14 5.44 0.49 28.3c0.37 21.02 0.18 29.05-0.72 31.21-2.71 6.44-10.01 10.17-29.99 15.36-6.05 1.57-13.25 3.55-16 4.41s-8.15 2.04-12 2.62c-35.73 5.42-38.93 5.67-45.44 3.53-3.87-1.26-9.11-1.6-24.25-1.57-21.43 0.04-29.17 1.06-44.07 5.84-8.83 2.82-10.93 3.12-22 3.05-8.18-0.05-13.57-0.56-16.24-1.55zm-12.94-48.36c14.68-1.61 27.43-6.95 34.01-14.23 4.19-4.64 3.84-5.7-3.77-11.52-18.28-13.98-44.9-27.987-59.59-31.358-16.53-3.796-33.53-4.79-49.24-2.879-15.54 1.893-33.25 6.292-36.63 9.107-2.29 1.9-2.03 12.92 2.25 17.02 10.3 9.67 15.93 13.95 29.16 20.12 12.63 6.59 34.25 11.95 53.25 13.21 5.22 0.35 11.07 1.01 13 1.48 1.92 0.46 4.62 0.67 6 0.45 1.37-0.22 6.58-0.85 11.56-1.4zm179.82-8.94c10.81-4.27 15.92-10.81 20.13-25.83 0.97-3.45 1.51-7.73 1.21-9.57-0.3-1.83 0.14-6 0.97-9.255 0.83-3.258 1.58-7.048 1.66-8.423 0.14-2.41-0.05-2.493-5.51-2.312-10.28 0.341-44.21 11.089-53.53 16.95-9.01 5.68-30.31 25.79-30.31 28.62 0 2.84 6.77 7.59 13.73 9.64 8.89 2.62 11.88 2.88 30.27 2.68 13.61-0.16 16.22-0.46 21.38-2.5z"/>
    </clipPath>
    <clipPath id="clipPath2419" clipPathUnits="userSpaceOnUse">
      <path id="path2421" sodipodi:nodetypes="csssssssssssssssccccccssssssssccsssssccsssccsssssssssc" style="fill:#000000" d="m231.73 200.77c-9.66-3.57-29.04-6.64-47-7.43-32.03-1.41-53.89-3.5-68.5-6.55-9.42-1.96-27.579-7.77-35.638-11.4-16.924-7.63-27.787-19.24-30.227-32.3-0.485-2.6-2.075-6.45-3.532-8.55-3.965-5.72-4.45-8.64-4.071-24.5 0.336-14.104 0.45-14.761 3.957-22.925 4.324-10.066 7.99-13.921 22.01-23.143 15.331-10.085 42.591-20.57 53.511-20.578 1.92-0.001 5.07-0.464 7-1.028 8.91-2.617 52.48-5.686 98.49-6.936 22-0.598 46.3-1.577 54-2.175 17.01-1.322 103.21-0.613 125 1.028 8.25 0.622 17.27 1.787 20.05 2.589 5.82 1.683 11.21 5.537 14.59 10.445 2.62 3.801 2.83 7.435 1.39 23.696l-0.81 9.12 4 4.38c8.12 8.894 8.3 12.048 1.14 19.617l-5.14 5.44 0.49 28.3c0.37 21.02 0.18 29.05-0.72 31.21-2.71 6.44-10.01 10.17-29.99 15.36-6.05 1.57-13.25 3.55-16 4.41s-8.15 2.04-12 2.62c-35.73 5.42-38.93 5.67-45.44 3.53-3.87-1.26-9.11-1.6-24.25-1.57-21.43 0.04-29.17 1.06-44.07 5.84-8.83 2.82-10.93 3.12-22 3.05-8.18-0.05-13.57-0.56-16.24-1.55zm-12.94-48.36c14.68-1.61 27.43-6.95 34.01-14.23 4.19-4.64 3.84-5.7-3.77-11.52-18.28-13.98-44.9-27.987-59.59-31.358-16.53-3.796-33.53-4.79-49.24-2.879-15.54 1.893-33.25 6.292-36.63 9.107-2.29 1.9-2.03 12.92 2.25 17.02 10.3 9.67 15.93 13.95 29.16 20.12 12.63 6.59 34.25 11.95 53.25 13.21 5.22 0.35 11.07 1.01 13 1.48 1.92 0.46 4.62 0.67 6 0.45 1.37-0.22 6.58-0.85 11.56-1.4zm179.82-8.94c10.81-4.27 15.92-10.81 20.13-25.83 0.97-3.45 1.51-7.73 1.21-9.57-0.3-1.83 0.14-6 0.97-9.255 0.83-3.258 1.58-7.048 1.66-8.423 0.14-2.41-0.05-2.493-5.51-2.312-10.28 0.341-44.21 11.089-53.53 16.95-9.01 5.68-30.31 25.79-30.31 28.62 0 2.84 6.77 7.59 13.73 9.64 8.89 2.62 11.88 2.88 30.27 2.68 13.61-0.16 16.22-0.46 21.38-2.5z"/>
    </clipPath>
    <filter id="filter3269" height="1.2042" width="1.1776" y="-.10213" x="-.088804" inkscape:collect="always">
      <feGaussianBlur id="feGaussianBlur3271" stdDeviation="2.7482508" inkscape:collect="always"/>
    </filter>
    <filter id="filter3321" inkscape:collect="always">
      <feGaussianBlur id="feGaussianBlur3323" stdDeviation="1.9386886" inkscape:collect="always"/>
    </filter>
    <filter id="filter3363" inkscape:collect="always">
      <feGaussianBlur id="feGaussianBlur3365" stdDeviation="1.4419" inkscape:collect="always"/>
    </filter>
    <filter id="filter3417" inkscape:collect="always">
      <feGaussianBlur id="feGaussianBlur3419" stdDeviation="2.2966759" inkscape:collect="always"/>
    </filter>
    <linearGradient id="linearGradient3428" y2="181.65" gradientUnits="userSpaceOnUse" x2="242.73" y1="162.27" x1="272.34" inkscape:collect="always">
      <stop id="stop3163" style="stop-color:#cccccc" offset="0"/>
      <stop id="stop3165" style="stop-color:#b3b3b3;stop-opacity:0" offset="1"/>
    </linearGradient>
    <linearGradient id="linearGradient3430" y2="68.084" gradientUnits="userSpaceOnUse" x2="135.63" y1="74.543" x1="95.264" inkscape:collect="always">
      <stop id="stop3155" style="stop-color:#cccccc" offset="0"/>
      <stop id="stop3157" style="stop-color:#cccccc;stop-opacity:0" offset="1"/>
    </linearGradient>
    <linearGradient id="linearGradient2467" y2="167.12" gradientUnits="userSpaceOnUse" x2="166.27" y1="153.66" x1="118.95" inkscape:collect="always">
      <stop id="stop3371" style="stop-color:#cccccc" offset="0"/>
      <stop id="stop3373" style="stop-color:#cccccc;stop-opacity:0" offset="1"/>
    </linearGradient>
    <linearGradient id="linearGradient2469" y2="110.06" gradientUnits="userSpaceOnUse" x2="369.75" y1="83.73" x1="354.68" inkscape:collect="always">
      <stop id="stop3337" style="stop-color:#e6e6e6" offset="0"/>
      <stop id="stop3339" style="stop-color:#e6e6e6;stop-opacity:0" offset="1"/>
    </linearGradient>
  </defs>
  <sodipodi:namedview id="base" bordercolor="#666666" inkscape:pageshadow="2" guidetolerance="10.0" pagecolor="#ffffff" gridtolerance="10.0" inkscape:zoom="1.3138044" objecttolerance="10.0" borderopacity="1.0" inkscape:current-layer="svg2" inkscape:cx="76.689043" inkscape:cy="76.137696" inkscape:window-height="480" showgrid="false" inkscape:pageopacity="0.0" inkscape:window-width="640"/>
  <g id="g2438" transform="matrix(1.9836 0 0 1.9836 1.2975 -.067794)">
    <path id="path2384" sodipodi:nodetypes="csssssssssssssssccccccssssssssccsssssccsssccsssssssssc" style="fill:#000000" transform="matrix(.29570 0 0 .29570 21.149 -9.5956)" d="m231.73 200.77c-9.66-3.57-29.04-6.64-47-7.43-32.03-1.41-53.89-3.5-68.5-6.55-9.42-1.96-27.579-7.77-35.638-11.4-16.924-7.63-27.787-19.24-30.227-32.3-0.485-2.6-2.075-6.45-3.532-8.55-3.965-5.72-4.45-8.64-4.071-24.5 0.336-14.104 0.45-14.761 3.957-22.925 4.324-10.066 7.99-13.921 22.01-23.143 15.331-10.085 42.591-20.57 53.511-20.578 1.92-0.001 5.07-0.464 7-1.028 8.91-2.617 52.48-5.686 98.49-6.936 22-0.598 46.3-1.577 54-2.175 17.01-1.322 103.21-0.613 125 1.028 8.25 0.622 17.27 1.787 20.05 2.589 5.82 1.683 11.21 5.537 14.59 10.445 2.62 3.801 2.83 7.435 1.39 23.696l-0.81 9.12 4 4.38c8.12 8.894 8.3 12.048 1.14 19.617l-5.14 5.44 0.49 28.3c0.37 21.02 0.18 29.05-0.72 31.21-2.71 6.44-10.01 10.17-29.99 15.36-6.05 1.57-13.25 3.55-16 4.41s-8.15 2.04-12 2.62c-35.73 5.42-38.93 5.67-45.44 3.53-3.87-1.26-9.11-1.6-24.25-1.57-21.43 0.04-29.17 1.06-44.07 5.84-8.83 2.82-10.93 3.12-22 3.05-8.18-0.05-13.57-0.56-16.24-1.55zm-12.94-48.36c14.68-1.61 27.43-6.95 34.01-14.23 4.19-4.64 3.84-5.7-3.77-11.52-18.28-13.98-44.9-27.987-59.59-31.358-16.53-3.796-33.53-4.79-49.24-2.879-15.54 1.893-33.25 6.292-36.63 9.107-2.29 1.9-2.03 12.92 2.25 17.02 10.3 9.67 15.93 13.95 29.16 20.12 12.63 6.59 34.25 11.95 53.25 13.21 5.22 0.35 11.07 1.01 13 1.48 1.92 0.46 4.62 0.67 6 0.45 1.37-0.22 6.58-0.85 11.56-1.4zm179.82-8.94c10.81-4.27 15.92-10.81 20.13-25.83 0.97-3.45 1.51-7.73 1.21-9.57-0.3-1.83 0.14-6 0.97-9.255 0.83-3.258 1.58-7.048 1.66-8.423 0.14-2.41-0.05-2.493-5.51-2.312-10.28 0.341-44.21 11.089-53.53 16.95-9.01 5.68-30.31 25.79-30.31 28.62 0 2.84 6.77 7.59 13.73 9.64 8.89 2.62 11.88 2.88 30.27 2.68 13.61-0.16 16.22-0.46 21.38-2.5z"/>
    <path id="path2379" sodipodi:nodetypes="ccccc" style="opacity:.87712;filter:url(#filter3269);fill-rule:evenodd;fill:url(#linearGradient3428)" transform="matrix(.29570 0 0 .29570 21.149 -9.5956)" d="m223.9 155.27c11-3.13 25.19-7.57 36.06-20.99 16.42 13.64 28.96 36.63 38.21 55.98-8.91 1.81-5.73 0.25-38.21 8.61l-36.06-43.6z"/>
    <path id="path3151" sodipodi:nodetypes="ccccc" style="opacity:.95763;filter:url(#filter3321);fill-rule:evenodd;fill:url(#linearGradient3430)" transform="matrix(.29570 0 0 .29570 21.149 -9.5956)" d="m97.955 103.61c7.095-7.854 23.135-11.424 50.055-15.074-27.86-12.462-29.73-33.446-27.99-43.057-37.916 9.74-43.701 16.471-46.823 20.452 13.851 8.826 23.777 20.269 24.758 37.679z"/>
    <path id="path3367" style="opacity:.95339;fill-rule:evenodd;filter:url(#filter3417);stroke:#000000;stroke-width:1px;fill:url(#linearGradient2467)" d="m111.95 127.83c13.7 16.48-14.007 55.56-19.916 50.05 15.936 7.27 37.376 13.09 73.196 11.84l0.54-39.29c-18.49-0.64-36.74-13.51-53.82-22.6z" clip-path="url(#clipPath2419)" sodipodi:nodetypes="ccccc" transform="matrix(.29570 0 0 .29570 21.149 -9.5956)"/>
    <path id="path3325" style="opacity:.90254;fill-rule:evenodd;filter:url(#filter3363);stroke:#000000;stroke-width:1px;fill:url(#linearGradient2469)" d="m327.23 94.456c12.64 30.784 8.16 28.134 4.31 33.904 6.19-3.16 22.47-20.05 27.53-22.51 39.49-19.151 35.93-15.293 65.58-21.62 5.1-7.171 0.25-3.66-4.31-8.073-33.72 6.407-59.38 23.044-93.11 18.299z" clip-path="url(#clipPath2426)" sodipodi:nodetypes="ccsccc" transform="matrix(.29570 0 0 .29570 21.149 -9.5956)"/>
    <path id="path3452" style="fill-rule:evenodd;stroke:#ffffff;stroke-width:1px;fill:#ffffff" d="m38.738 26.632c0 0.446-0.361 0.807-0.807 0.807s-0.807-0.361-0.807-0.807 0.361-0.807 0.807-0.807 0.807 0.361 0.807 0.807z"/>
    <path id="path3436" sodipodi:nodetypes="cccccccccc" style="stroke:#000000;stroke-width:1px;fill:none" d="m150.69 18.828c-2.24 11.081 0.77 24.059-7.45 33.235-8.67 14.692-10.43 32.995-22.29 45.874-9.88 14.073-25.162 23.613-41.481 28.473-15.12 5.58-30.863 9.86-46.881 11.69-13.748-0.12-29.551-8.08-31.962-22.8-2.6506-14.98 1.8776-30.168 7.2246-44.034 4.1994-8.261 10.478-15.331 13.594-24.154 2.247-6.953 10.708-15.174 15.614-19.872 0.925-1.158-0.446 2.133 0.065 0.738"/>
  </g>
  <metadata>
    <rdf:RDF>
      <cc:Work>
        <dc:format>image/svg+xml</dc:format>
        <dc:type rdf:resource="http://purl.org/dc/dcmitype/StillImage"/>
        <cc:license rdf:resource="http://creativecommons.org/licenses/publicdomain/"/>
        <dc:publisher>
          <cc:Agent rdf:about="http://openclipart.org/">
            <dc:title>Openclipart</dc:title>
          </cc:Agent>
        </dc:publisher>
        <dc:title>Lone Ranger style mask</dc:title>
        <dc:date>2011-08-22T15:05:14</dc:date>
        <dc:description>Lone Ranger style mask</dc:description>
        <dc:source>https://openclipart.org/detail/157501/lone-ranger-style-mask-by-studio_hades</dc:source>
        <dc:creator>
          <cc:Agent>
            <dc:title>studio_hades</dc:title>
          </cc:Agent>
        </dc:creator>
        <dc:subject>
          <rdf:Bag>
            <rdf:li>Lone Ranger</rdf:li>
            <rdf:li>cowboy</rdf:li>
            <rdf:li>diamond mask</rdf:li>
            <rdf:li>mask</rdf:li>
          </rdf:Bag>
        </dc:subject>
      </cc:Work>
      <cc:License rdf:about="http://creativecommons.org/licenses/publicdomain/">
        <cc:permits rdf:resource="http://creativecommons.org/ns#Reproduction"/>
        <cc:permits rdf:resource="http://creativecommons.org/ns#Distribution"/>
        <cc:permits rdf:resource="http://creativecommons.org/ns#DerivativeWorks"/>
      </cc:License>
    </rdf:RDF>
  </metadata>
</svg>