<?xml version="1.0" encoding="utf-8"?><!DOCTYPE svg PUBLIC "-//W3C//DTD SVG 1.1//EN" "http://www.w3.org/Graphics/SVG/1.1/DTD/svg11.dtd"><svg version="1.1" xmlns="http://www.w3.org/2000/svg" xmlns:xlink="http://www.w3.org/1999/xlink" x="0px" y="0px" viewBox="0 0 100 118.485" enable-background="new 0 0 100 94.788" xml:space="preserve"><g><path fill="#010101" d="M23.434,69.34c-0.108-2.767-2.059-14.608-1.021-26.548c1.337-15.39,3.911-21.333,7.03-28.296
		c1.556-3.474,0.383-6.752-2.53-8.984l2.187-1.519c1.173-0.816,0.99-1.726-0.408-2.019l-9.093-1.917
		c-1.396-0.293-2.237,0.594-1.864,1.971l0.282,1.052c-3.131,0.419-5.87,2.101-7.379,4.369C3.87,17.619,1.648,27.315,0.489,38.065
		c-1.425,13.213,0.442,27.415,3.316,35.43c0.879,2.454,3.275,4.518,6.189,5.521l-0.492,2.195c-0.314,1.39,0.581,2.328,1.987,2.074
		l8.233-1.478c1.405-0.252,1.87-1.406,1.032-2.561l-1.015-1.401C22.637,75.695,23.538,72.078,23.434,69.34z"/><path fill="#010101" d="M40.924,94.727l8.169-1.8c1.395-0.308,1.813-1.477,0.929-2.603l-1.961-2.49
		c2.802-2.394,3.558-5.996,2.62-8.84c-0.865-2.634-3.036-14.353-3.238-26.337c-0.259-15.445,0.762-20.331,3.145-27.583
		c1.233-3.748-0.176-7.753-3.432-9.982l2.241-2.275c1.001-1.016,0.663-1.99-0.755-2.162l-9.244-1.123
		c-1.417-0.172-2.208,0.797-1.758,2.15l0.526,1.59c-2.887,0.466-5.274,2.135-6.604,5.48c-4.519,11.363-5.804,21.4-5.845,32.21
		c-0.054,13.288,3.297,28.411,5.871,34.187c1.184,2.65,4.281,4.576,7.734,5.053l-0.463,2.529
		C38.6,94.139,39.53,95.036,40.924,94.727z"/><path fill="#010101" d="M88.884,15.612l-0.24,1.656c-2.791-0.87-5.672-0.444-8.359,1.952c-9.118,8.144-11.804,12.752-16.676,22.404
		c-5.987,11.864-9.753,26.89-10.031,33.207c-0.127,2.898,1.784,6.007,4.658,7.978l-1.544,2.055
		c-0.859,1.141-0.429,2.359,0.957,2.707l8.111,2.041c1.386,0.348,2.284-0.512,1.997-1.911l-0.643-3.105
		c3.577-0.886,5.86-3.771,6.294-6.735c0.402-2.743,3.701-14.196,8.878-25.005c6.674-13.934,6.821-14.057,12.193-19.475
		c2.776-2.801,3.308-7.015,1.394-10.463l3.021-1.032c1.353-0.463,1.48-1.484,0.292-2.272l-7.767-5.138
		C90.227,13.686,89.086,14.202,88.884,15.612z"/></g><text x="0" y="109.788" fill="#000000" font-size="5px" font-weight="bold" font-family="'Helvetica Neue', Helvetica, Arial-Unicode, Arial, Sans-serif">Created by Jacob Halton</text><text x="0" y="114.788" fill="#000000" font-size="5px" font-weight="bold" font-family="'Helvetica Neue', Helvetica, Arial-Unicode, Arial, Sans-serif">from the Noun Project</text></svg>